<?xml version="1.0" standalone="no"?>
<!DOCTYPE svg PUBLIC "-//W3C//DTD SVG 20010904//EN"
 "http://www.w3.org/TR/2001/REC-SVG-20010904/DTD/svg10.dtd">
<svg version="1.0" xmlns="http://www.w3.org/2000/svg"
 width="300.000000pt" height="384.000000pt" viewBox="0 0 300.000000 384.000000"
 preserveAspectRatio="xMidYMid meet">
<metadata>
Created by potrace 1.10, written by Peter Selinger 2001-2011
</metadata>
<g transform="translate(0.000000,384.000000) scale(0.100000,-0.100000)"
fill="#000000" stroke="none">
<path d="M504 3241 c-67 -41 -71 -188 -9 -361 42 -118 41 -108 28 -285 -27
-361 13 -478 191 -563 l69 -33 -6 -62 c-23 -225 -29 -497 -18 -782 12 -317 25
-453 47 -496 16 -33 77 -63 126 -63 46 -1 85 33 94 81 3 18 11 33 16 33 5 0 3
7 -5 15 -16 15 -13 82 3 99 10 10 10 7 10 -115 1 -99 9 -112 77 -123 49 -7
118 16 133 44 9 17 22 18 142 13 104 -4 140 -9 164 -24 34 -20 95 -17 115 7 6
8 23 14 38 14 77 0 234 48 295 89 42 29 47 31 68 17 85 -55 260 -68 355 -27
172 76 288 387 202 540 -42 75 -127 90 -182 33 -22 -22 -31 -49 -45 -123 -33
-169 -69 -208 -180 -195 -86 10 -91 15 -80 83 5 32 8 112 5 178 -3 96 -10 135
-30 195 -33 92 -118 220 -218 325 -121 128 -209 242 -209 271 0 5 22 22 50 37
62 35 92 74 119 154 18 54 21 87 21 233 0 94 -5 201 -11 238 -11 65 -10 70 31
192 39 117 42 131 38 216 -6 142 -40 176 -153 154 -82 -16 -204 -64 -255 -101
l-42 -30 -126 22 c-140 24 -227 22 -365 -6 l-78 -17 -112 55 c-95 47 -220 87
-269 87 -7 0 -27 -9 -44 -19z m108 -32 c69 -15 192 -65 246 -101 51 -33 53
-34 172 -8 112 24 230 26 325 5 134 -30 142 -30 183 -2 86 60 278 125 329 113
28 -8 43 -53 43 -133 0 -48 -10 -93 -41 -185 l-41 -121 12 -111 c15 -133 8
-394 -11 -450 -16 -46 -72 -106 -122 -129 -47 -23 -61 -42 -54 -77 9 -44 106
-170 231 -300 132 -138 176 -213 207 -352 47 -211 -8 -501 -110 -575 -16 -13
-33 -23 -37 -23 -4 0 -15 -6 -23 -14 -14 -12 -82 -32 -179 -51 -32 -7 -33 -6
-23 13 33 61 -7 402 -57 497 -25 47 -30 50 -70 53 -36 3 -47 -1 -71 -26 -56
-55 -65 -215 -25 -434 14 -74 21 -93 48 -119 22 -22 26 -28 11 -23 -11 4 -25
13 -32 20 -7 7 -61 15 -128 19 l-116 7 5 72 c3 39 8 109 11 156 3 47 8 112 11
146 4 45 2 64 -9 72 -30 25 -39 -13 -53 -206 -17 -242 -22 -270 -45 -293 -14
-14 -27 -17 -51 -12 -18 3 -37 9 -41 13 -17 15 -26 90 -37 295 -7 116 -16 214
-21 219 -23 25 -31 -21 -39 -216 -7 -168 -12 -211 -28 -249 -24 -56 -41 -63
-92 -43 -50 20 -56 39 -70 229 -25 335 -27 719 -5 1048 6 88 5 98 -12 103 -65
22 -133 60 -166 92 -61 59 -78 132 -78 330 1 89 6 193 12 232 10 69 10 71 -36
207 -42 124 -47 145 -42 205 4 69 26 118 52 118 8 0 38 -5 67 -11z m1979
-1971 c17 -29 20 -45 16 -123 -8 -171 -97 -317 -215 -351 -71 -21 -156 -19
-222 6 -81 30 -83 33 -57 113 17 52 25 66 37 61 38 -17 110 -26 153 -20 88 13
134 74 156 207 7 35 14 74 16 86 14 61 83 73 116 21z m-978 -45 c38 -43 81
-386 58 -470 -14 -50 -45 -77 -72 -62 -17 9 -29 40 -58 162 -15 62 -26 273
-17 320 12 62 55 87 89 50z m517 -220 c0 -19 -13 -9 -16 12 -1 8 2 13 7 9 5
-3 9 -12 9 -21z m-63 -150 c-4 -3 3 -18 15 -31 l23 -25 -24 13 c-17 8 -26 9
-34 1 -6 -6 -17 -11 -24 -11 -9 0 -7 9 9 30 12 17 26 30 32 30 5 0 6 -3 3 -7z
m-79 -77 c-7 -8 -15 -12 -17 -11 -5 6 10 25 20 25 5 0 4 -6 -3 -14z m-717 -60
c17 10 9 -2 -16 -26 l-25 -24 12 34 c6 19 13 29 16 22 2 -7 8 -10 13 -6z m433
-5 c3 -5 0 -11 -7 -14 -8 -3 -14 1 -14 9 0 16 13 19 21 5z m-599 -59 c-3 -3
-11 0 -18 7 -9 10 -8 11 6 5 10 -3 15 -9 12 -12z"/>
<path d="M1750 3100 c-31 -9 -100 -51 -119 -73 -11 -14 -5 -25 50 -82 34 -36
65 -65 69 -65 17 0 61 80 69 125 14 77 -10 111 -69 95z m33 -73 c-1 -20 -9
-50 -17 -66 l-15 -29 -42 40 c-23 22 -38 43 -33 48 18 16 89 50 99 46 5 -2 9
-20 8 -39z"/>
<path d="M606 3064 c-9 -8 -16 -20 -16 -27 0 -30 35 -134 51 -151 17 -18 19
-17 74 35 68 64 68 82 1 127 -53 35 -86 40 -110 16z m86 -47 l37 -23 -35 -33
c-19 -19 -36 -32 -38 -30 -5 7 -26 86 -26 98 0 17 21 13 62 -12z"/>
<path d="M897 2592 c-45 -49 4 -114 58 -78 30 20 32 49 5 76 -25 25 -42 25
-63 2z m43 -52 c-19 -12 -35 3 -26 26 6 17 8 17 24 0 15 -15 15 -18 2 -26z"/>
<path d="M1438 2589 c-22 -12 -24 -62 -4 -78 20 -17 67 -10 80 11 16 27 -4 72
-34 75 -14 2 -33 -2 -42 -8z m49 -43 c-8 -19 -37 -21 -37 -3 0 7 5 18 12 25
15 15 33 -1 25 -22z"/>
<path d="M1150 2460 c0 -5 9 -14 20 -20 15 -8 20 -21 20 -48 0 -31 -6 -41 -35
-60 -26 -19 -41 -22 -66 -17 -24 5 -30 4 -27 -6 10 -30 79 -23 115 11 l22 20
26 -24 c29 -27 62 -36 93 -25 35 13 26 31 -11 24 -75 -14 -136 94 -70 124 19
9 23 15 15 23 -8 8 -15 8 -27 -2 -12 -10 -21 -10 -41 -1 -30 13 -34 14 -34 1z"/>
<path d="M710 2400 c0 -6 30 -10 70 -10 40 0 70 4 70 10 0 6 -30 10 -70 10
-40 0 -70 -4 -70 -10z"/>
<path d="M1583 2403 c-34 -4 -46 -23 -15 -23 45 0 122 14 122 21 0 9 -45 10
-107 2z"/>
<path d="M777 2305 c-27 -7 -51 -16 -55 -19 -13 -13 9 -17 40 -8 18 6 45 13
61 16 15 4 27 11 27 16 0 12 -13 12 -73 -5z"/>
<path d="M1545 2300 c-6 -10 103 -55 112 -46 10 9 0 15 -56 36 -28 10 -53 15
-56 10z"/>
<path d="M2904 882 c4 -3 14 -7 22 -8 9 -1 13 0 10 4 -4 3 -14 7 -22 8 -9 1
-13 0 -10 -4z"/>
</g>
</svg>
