<?xml version="1.0" standalone="no"?>
<!DOCTYPE svg PUBLIC "-//W3C//DTD SVG 20010904//EN"
 "http://www.w3.org/TR/2001/REC-SVG-20010904/DTD/svg10.dtd">
<svg version="1.0" xmlns="http://www.w3.org/2000/svg"
 width="300.000000pt" height="332.000000pt" viewBox="0 0 300.000000 332.000000"
 preserveAspectRatio="xMidYMid meet">
<metadata>
Created by potrace 1.10, written by Peter Selinger 2001-2011
</metadata>
<g transform="translate(0.000000,332.000000) scale(0.100000,-0.100000)"
fill="#000000" stroke="none">
<path d="M1305 3079 c-160 -8 -202 -18 -251 -61 -72 -63 -88 -129 -70 -284 25
-220 7 -296 -120 -483 -61 -89 -75 -121 -54 -121 29 0 217 123 315 206 36 31
68 54 70 52 4 -4 0 -16 -67 -218 -39 -119 -44 -127 -96 -175 -121 -110 -224
-286 -257 -440 -46 -212 -54 -236 -103 -315 -43 -68 -75 -140 -91 -204 -13
-52 -16 -187 -6 -229 7 -24 4 -27 -47 -41 -29 -8 -93 -22 -143 -31 -111 -19
-209 -65 -236 -108 -56 -92 19 -167 165 -167 151 0 235 38 223 99 -6 26 -3 29
30 34 21 4 39 5 41 3 2 -2 -4 -18 -12 -35 -22 -42 -20 -82 6 -121 36 -52 73
-74 124 -75 41 0 46 -3 62 -35 23 -49 89 -112 142 -137 73 -34 138 -53 181
-53 78 0 162 64 177 135 l8 40 84 1 c47 0 94 3 106 7 19 7 20 4 20 -42 -1 -59
22 -95 80 -128 79 -45 153 -41 277 14 58 26 127 97 127 129 0 8 8 14 18 14 41
0 113 33 141 66 35 39 55 103 46 146 -8 35 -57 93 -96 113 -26 14 -27 16 -14
42 25 50 45 146 45 216 0 54 -8 93 -40 185 -34 97 -42 137 -50 237 -12 165
-26 229 -65 308 l-33 67 46 22 c26 11 66 34 90 50 44 31 52 27 26 -11 -27 -38
-44 -121 -45 -216 0 -76 5 -106 32 -185 17 -52 38 -107 45 -122 28 -53 64 -24
64 51 0 47 50 199 78 238 38 52 107 110 175 147 223 119 234 161 119 458 -40
103 -72 191 -72 195 -1 15 -37 51 -67 66 -22 12 -32 26 -37 51 -12 64 -96 216
-146 266 -84 83 -214 159 -303 175 -23 5 -46 18 -60 35 -23 29 -159 118 -224
146 -51 22 -187 30 -358 23z m310 -47 c57 -16 222 -117 252 -152 14 -17 33
-30 43 -30 30 0 152 -54 210 -92 60 -40 120 -100 162 -163 31 -46 88 -179 88
-206 0 -12 13 -24 34 -33 42 -17 59 -43 81 -121 10 -33 24 -75 33 -94 109
-251 114 -302 39 -366 -23 -20 -78 -56 -122 -80 -106 -57 -164 -110 -202 -182
-33 -62 -61 -149 -65 -201 -1 -18 -5 -32 -9 -32 -3 0 -21 44 -39 98 -29 87
-32 105 -27 174 8 101 38 187 95 271 110 160 132 211 139 327 5 75 3 88 -15
110 -27 33 -36 21 -25 -32 26 -119 -28 -261 -136 -360 -52 -48 -98 -76 -219
-135 -141 -69 -312 -131 -312 -113 0 4 12 25 26 46 41 59 51 90 68 206 12 85
22 118 46 157 19 30 35 74 41 111 10 66 88 237 120 266 11 9 19 23 19 30 0 8
-35 -9 -83 -40 -107 -71 -291 -154 -362 -166 -31 -5 -81 -21 -112 -35 -30 -14
-62 -25 -69 -25 -31 0 -157 -101 -182 -146 -28 -50 -17 5 30 146 77 235 68
221 220 370 116 114 142 146 169 203 47 102 96 122 153 61 22 -25 46 -26 46
-2 0 5 -14 23 -31 39 -24 23 -41 29 -74 29 -57 0 -89 -27 -126 -106 -39 -82
-94 -142 -225 -245 -59 -46 -146 -116 -193 -155 -112 -91 -225 -169 -218 -149
4 8 24 41 45 73 104 154 117 236 86 512 -12 103 36 195 113 221 78 25 414 34
488 11z m211 -735 c-19 -35 -40 -92 -46 -127 -6 -35 -25 -89 -40 -119 -30 -57
-41 -102 -59 -223 -12 -84 -35 -132 -86 -184 -77 -77 -184 -80 -244 -6 -17 20
-31 42 -31 49 0 25 -74 95 -130 123 -53 27 -57 31 -68 80 -11 45 -10 55 8 89
27 53 99 114 168 142 31 12 82 34 112 49 30 15 77 31 104 35 28 4 96 30 157
61 59 30 111 54 115 54 5 0 20 9 34 20 41 32 43 23 6 -43z m-747 -372 c0 -39
6 -66 20 -89 12 -18 21 -51 21 -72 1 -88 98 -184 187 -184 24 0 58 -7 74 -16
40 -20 147 -14 244 13 39 11 93 25 120 32 28 7 74 23 104 36 29 14 57 23 61
20 13 -8 52 -97 67 -155 20 -76 28 -253 14 -320 -6 -30 -25 -138 -43 -240
l-31 -185 17 -100 c10 -55 20 -111 22 -125 11 -57 16 -171 10 -205 -15 -79
-125 -159 -237 -172 -91 -11 -189 47 -189 111 0 18 21 90 46 161 59 168 68
267 35 395 -16 59 -21 107 -20 162 2 50 -1 82 -9 90 -9 9 -13 7 -19 -8 -10
-26 -10 -183 0 -216 9 -26 7 -27 -48 -38 -44 -9 -76 -9 -141 0 -46 7 -86 16
-89 20 -3 4 2 20 9 36 9 17 16 69 18 124 2 79 1 95 -12 95 -10 0 -16 -12 -18
-40 -5 -83 -23 -180 -36 -195 -7 -8 -24 -42 -36 -75 -19 -48 -23 -80 -24 -165
0 -93 3 -115 32 -197 18 -50 32 -103 32 -116 0 -35 -40 -89 -80 -110 -80 -42
-233 4 -317 96 -85 92 -91 158 -28 317 62 157 61 292 -6 507 -36 118 -49 263
-30 351 35 161 44 194 66 240 13 28 40 75 59 105 37 58 133 167 146 167 5 0 9
-25 9 -55z m168 -198 c33 -35 84 -127 70 -126 -73 4 -167 95 -167 161 l0 28
38 -20 c22 -11 48 -30 59 -43z m-484 -507 c3 -39 15 -96 26 -128 49 -141 61
-242 41 -354 -13 -71 -49 -178 -60 -178 -17 0 -90 92 -113 141 -66 141 -54
341 27 479 15 25 34 60 43 78 9 17 20 32 23 32 4 0 10 -32 13 -70z m1324 -303
c4 -58 1 -95 -12 -144 -19 -69 -65 -165 -82 -170 -11 -4 -33 100 -33 158 0 33
48 349 57 379 10 30 64 -144 70 -223z m-741 -128 c44 -11 191 -7 233 6 l24 8
-5 -119 c-4 -101 -10 -133 -36 -208 -18 -50 -37 -95 -42 -100 -7 -7 -57 -11
-122 -11 l-112 0 -28 85 c-38 120 -37 227 4 333 7 19 16 26 26 22 8 -3 34 -10
58 -16z m-741 -78 c3 -16 13 -35 21 -42 26 -21 15 -35 -30 -38 -24 -1 -58 -6
-76 -11 -19 -5 -41 -5 -56 1 -37 14 -120 11 -133 -4 -17 -21 -3 -27 65 -27 45
0 68 -5 85 -18 50 -41 -15 -72 -148 -72 -89 0 -139 13 -153 40 -39 72 52 132
247 164 49 8 105 21 124 29 41 17 46 15 54 -22z m1486 -113 c58 -43 74 -108
43 -175 -19 -39 -45 -58 -90 -66 l-32 -6 -4 97 c-4 91 -3 99 21 134 14 21 27
37 29 38 2 0 17 -10 33 -22z m-1379 -40 c38 -40 41 -47 40 -98 l0 -55 -39 2
c-28 2 -45 11 -67 34 -24 28 -28 38 -23 76 4 36 29 83 44 83 2 0 22 -19 45
-42z"/>
<path d="M1461 2527 c-47 -17 -74 -56 -74 -108 0 -59 44 -99 107 -99 77 0 131
76 101 145 -25 60 -75 83 -134 62z m59 -48 c0 -6 -4 -18 -10 -28 -5 -10 -10
-35 -12 -55 -2 -40 -12 -44 -46 -20 -29 20 -29 67 0 94 23 21 68 28 68 9z m52
-31 c9 -23 -12 -78 -29 -78 -12 0 -14 7 -9 31 3 17 6 38 6 45 0 17 26 18 32 2z"/>
<path d="M1956 2120 c-66 -20 -97 -80 -76 -146 22 -67 119 -83 171 -28 35 37
34 114 -1 148 -31 30 -56 37 -94 26z m48 -49 c3 -4 -4 -25 -14 -47 -11 -21
-20 -44 -20 -51 0 -16 -22 -17 -38 -1 -17 17 -15 68 5 90 17 19 58 25 67 9z
m46 -62 c0 -26 -18 -59 -31 -59 -11 0 -4 63 8 83 8 13 23 -3 23 -24z"/>
<path d="M1345 1978 c-44 -25 -46 -55 -5 -69 37 -13 40 -39 5 -39 -23 0 -25
-4 -25 -45 0 -37 3 -45 19 -45 10 0 33 -3 50 -6 31 -6 32 -6 25 20 -5 22 -3
26 15 26 11 0 25 -9 31 -20 22 -41 60 -8 60 52 0 36 -6 47 -45 85 -25 24 -54
43 -64 43 -11 0 -25 2 -33 5 -7 2 -22 -1 -33 -7z m92 -65 c17 -16 34 -38 38
-50 6 -21 5 -22 -26 -11 -25 9 -34 8 -37 0 -9 -27 -20 -10 -15 22 3 19 1 36
-6 40 -6 4 -11 11 -11 17 0 17 26 9 57 -18z"/>
</g>
</svg>
