<?xml version='1.0' encoding='ASCII' standalone='yes'?>
<svg xmlns="http://www.w3.org/2000/svg" version="1.0" width="300.000000pt" height="273.000000pt" viewBox="0 0 300.000000 273.000000" preserveAspectRatio="xMidYMid meet">
<metadata>
Created by potrace 1.10, written by Peter Selinger 2001-2011
</metadata>
<g transform="translate(0.000000,273.000000) scale(0.100000,-0.100000)" fill="#000000" stroke="none">
</g>
<g><g transform="translate(195.10310712797815, 40.089554765138274) scale(0.23774032967995448 0.5320435931165535) "><metadata>
Created by potrace 1.10, written by Peter Selinger 2001-2011
</metadata>
<g transform="translate(0.000000,332.000000) scale(0.100000,-0.100000)" fill="#000000" stroke="none">
<path d="M1305 3079 c-160 -8 -202 -18 -251 -61 -72 -63 -88 -129 -70 -284 25 -220 7 -296 -120 -483 -61 -89 -75 -121 -54 -121 29 0 217 123 315 206 36 31 68 54 70 52 4 -4 0 -16 -67 -218 -39 -119 -44 -127 -96 -175 -121 -110 -224 -286 -257 -440 -46 -212 -54 -236 -103 -315 -43 -68 -75 -140 -91 -204 -13 -52 -16 -187 -6 -229 7 -24 4 -27 -47 -41 -29 -8 -93 -22 -143 -31 -111 -19 -209 -65 -236 -108 -56 -92 19 -167 165 -167 151 0 235 38 223 99 -6 26 -3 29 30 34 21 4 39 5 41 3 2 -2 -4 -18 -12 -35 -22 -42 -20 -82 6 -121 36 -52 73 -74 124 -75 41 0 46 -3 62 -35 23 -49 89 -112 142 -137 73 -34 138 -53 181 -53 78 0 162 64 177 135 l8 40 84 1 c47 0 94 3 106 7 19 7 20 4 20 -42 -1 -59 22 -95 80 -128 79 -45 153 -41 277 14 58 26 127 97 127 129 0 8 8 14 18 14 41 0 113 33 141 66 35 39 55 103 46 146 -8 35 -57 93 -96 113 -26 14 -27 16 -14 42 25 50 45 146 45 216 0 54 -8 93 -40 185 -34 97 -42 137 -50 237 -12 165 -26 229 -65 308 l-33 67 46 22 c26 11 66 34 90 50 44 31 52 27 26 -11 -27 -38 -44 -121 -45 -216 0 -76 5 -106 32 -185 17 -52 38 -107 45 -122 28 -53 64 -24 64 51 0 47 50 199 78 238 38 52 107 110 175 147 223 119 234 161 119 458 -40 103 -72 191 -72 195 -1 15 -37 51 -67 66 -22 12 -32 26 -37 51 -12 64 -96 216 -146 266 -84 83 -214 159 -303 175 -23 5 -46 18 -60 35 -23 29 -159 118 -224 146 -51 22 -187 30 -358 23z m310 -47 c57 -16 222 -117 252 -152 14 -17 33 -30 43 -30 30 0 152 -54 210 -92 60 -40 120 -100 162 -163 31 -46 88 -179 88 -206 0 -12 13 -24 34 -33 42 -17 59 -43 81 -121 10 -33 24 -75 33 -94 109 -251 114 -302 39 -366 -23 -20 -78 -56 -122 -80 -106 -57 -164 -110 -202 -182 -33 -62 -61 -149 -65 -201 -1 -18 -5 -32 -9 -32 -3 0 -21 44 -39 98 -29 87 -32 105 -27 174 8 101 38 187 95 271 110 160 132 211 139 327 5 75 3 88 -15 110 -27 33 -36 21 -25 -32 26 -119 -28 -261 -136 -360 -52 -48 -98 -76 -219 -135 -141 -69 -312 -131 -312 -113 0 4 12 25 26 46 41 59 51 90 68 206 12 85 22 118 46 157 19 30 35 74 41 111 10 66 88 237 120 266 11 9 19 23 19 30 0 8 -35 -9 -83 -40 -107 -71 -291 -154 -362 -166 -31 -5 -81 -21 -112 -35 -30 -14 -62 -25 -69 -25 -31 0 -157 -101 -182 -146 -28 -50 -17 5 30 146 77 235 68 221 220 370 116 114 142 146 169 203 47 102 96 122 153 61 22 -25 46 -26 46 -2 0 5 -14 23 -31 39 -24 23 -41 29 -74 29 -57 0 -89 -27 -126 -106 -39 -82 -94 -142 -225 -245 -59 -46 -146 -116 -193 -155 -112 -91 -225 -169 -218 -149 4 8 24 41 45 73 104 154 117 236 86 512 -12 103 36 195 113 221 78 25 414 34 488 11z m211 -735 c-19 -35 -40 -92 -46 -127 -6 -35 -25 -89 -40 -119 -30 -57 -41 -102 -59 -223 -12 -84 -35 -132 -86 -184 -77 -77 -184 -80 -244 -6 -17 20 -31 42 -31 49 0 25 -74 95 -130 123 -53 27 -57 31 -68 80 -11 45 -10 55 8 89 27 53 99 114 168 142 31 12 82 34 112 49 30 15 77 31 104 35 28 4 96 30 157 61 59 30 111 54 115 54 5 0 20 9 34 20 41 32 43 23 6 -43z m-747 -372 c0 -39 6 -66 20 -89 12 -18 21 -51 21 -72 1 -88 98 -184 187 -184 24 0 58 -7 74 -16 40 -20 147 -14 244 13 39 11 93 25 120 32 28 7 74 23 104 36 29 14 57 23 61 20 13 -8 52 -97 67 -155 20 -76 28 -253 14 -320 -6 -30 -25 -138 -43 -240 l-31 -185 17 -100 c10 -55 20 -111 22 -125 11 -57 16 -171 10 -205 -15 -79 -125 -159 -237 -172 -91 -11 -189 47 -189 111 0 18 21 90 46 161 59 168 68 267 35 395 -16 59 -21 107 -20 162 2 50 -1 82 -9 90 -9 9 -13 7 -19 -8 -10 -26 -10 -183 0 -216 9 -26 7 -27 -48 -38 -44 -9 -76 -9 -141 0 -46 7 -86 16 -89 20 -3 4 2 20 9 36 9 17 16 69 18 124 2 79 1 95 -12 95 -10 0 -16 -12 -18 -40 -5 -83 -23 -180 -36 -195 -7 -8 -24 -42 -36 -75 -19 -48 -23 -80 -24 -165 0 -93 3 -115 32 -197 18 -50 32 -103 32 -116 0 -35 -40 -89 -80 -110 -80 -42 -233 4 -317 96 -85 92 -91 158 -28 317 62 157 61 292 -6 507 -36 118 -49 263 -30 351 35 161 44 194 66 240 13 28 40 75 59 105 37 58 133 167 146 167 5 0 9 -25 9 -55z m168 -198 c33 -35 84 -127 70 -126 -73 4 -167 95 -167 161 l0 28 38 -20 c22 -11 48 -30 59 -43z m-484 -507 c3 -39 15 -96 26 -128 49 -141 61 -242 41 -354 -13 -71 -49 -178 -60 -178 -17 0 -90 92 -113 141 -66 141 -54 341 27 479 15 25 34 60 43 78 9 17 20 32 23 32 4 0 10 -32 13 -70z m1324 -303 c4 -58 1 -95 -12 -144 -19 -69 -65 -165 -82 -170 -11 -4 -33 100 -33 158 0 33 48 349 57 379 10 30 64 -144 70 -223z m-741 -128 c44 -11 191 -7 233 6 l24 8 -5 -119 c-4 -101 -10 -133 -36 -208 -18 -50 -37 -95 -42 -100 -7 -7 -57 -11 -122 -11 l-112 0 -28 85 c-38 120 -37 227 4 333 7 19 16 26 26 22 8 -3 34 -10 58 -16z m-741 -78 c3 -16 13 -35 21 -42 26 -21 15 -35 -30 -38 -24 -1 -58 -6 -76 -11 -19 -5 -41 -5 -56 1 -37 14 -120 11 -133 -4 -17 -21 -3 -27 65 -27 45 0 68 -5 85 -18 50 -41 -15 -72 -148 -72 -89 0 -139 13 -153 40 -39 72 52 132 247 164 49 8 105 21 124 29 41 17 46 15 54 -22z m1486 -113 c58 -43 74 -108 43 -175 -19 -39 -45 -58 -90 -66 l-32 -6 -4 97 c-4 91 -3 99 21 134 14 21 27 37 29 38 2 0 17 -10 33 -22z m-1379 -40 c38 -40 41 -47 40 -98 l0 -55 -39 2 c-28 2 -45 11 -67 34 -24 28 -28 38 -23 76 4 36 29 83 44 83 2 0 22 -19 45 -42z"/>
<path d="M1461 2527 c-47 -17 -74 -56 -74 -108 0 -59 44 -99 107 -99 77 0 131 76 101 145 -25 60 -75 83 -134 62z m59 -48 c0 -6 -4 -18 -10 -28 -5 -10 -10 -35 -12 -55 -2 -40 -12 -44 -46 -20 -29 20 -29 67 0 94 23 21 68 28 68 9z m52 -31 c9 -23 -12 -78 -29 -78 -12 0 -14 7 -9 31 3 17 6 38 6 45 0 17 26 18 32 2z"/>
<path d="M1956 2120 c-66 -20 -97 -80 -76 -146 22 -67 119 -83 171 -28 35 37 34 114 -1 148 -31 30 -56 37 -94 26z m48 -49 c3 -4 -4 -25 -14 -47 -11 -21 -20 -44 -20 -51 0 -16 -22 -17 -38 -1 -17 17 -15 68 5 90 17 19 58 25 67 9z m46 -62 c0 -26 -18 -59 -31 -59 -11 0 -4 63 8 83 8 13 23 -3 23 -24z"/>
<path d="M1345 1978 c-44 -25 -46 -55 -5 -69 37 -13 40 -39 5 -39 -23 0 -25 -4 -25 -45 0 -37 3 -45 19 -45 10 0 33 -3 50 -6 31 -6 32 -6 25 20 -5 22 -3 26 15 26 11 0 25 -9 31 -20 22 -41 60 -8 60 52 0 36 -6 47 -45 85 -25 24 -54 43 -64 43 -11 0 -25 2 -33 5 -7 2 -22 -1 -33 -7z m92 -65 c17 -16 34 -38 38 -50 6 -21 5 -22 -26 -11 -25 9 -34 8 -37 0 -9 -27 -20 -10 -15 22 3 19 1 36 -6 40 -6 4 -11 11 -11 17 0 17 26 9 57 -18z"/>
</g>
</g></g><g><g transform="translate(97.95181816107178, 27.230255603072152) scale(0.1995197292641703 0.5632157291633537) "><metadata>
Created by potrace 1.10, written by Peter Selinger 2001-2011
</metadata>
<g transform="translate(0.000000,332.000000) scale(0.100000,-0.100000)" fill="#000000" stroke="none">
<path d="M1305 3079 c-160 -8 -202 -18 -251 -61 -72 -63 -88 -129 -70 -284 25 -220 7 -296 -120 -483 -61 -89 -75 -121 -54 -121 29 0 217 123 315 206 36 31 68 54 70 52 4 -4 0 -16 -67 -218 -39 -119 -44 -127 -96 -175 -121 -110 -224 -286 -257 -440 -46 -212 -54 -236 -103 -315 -43 -68 -75 -140 -91 -204 -13 -52 -16 -187 -6 -229 7 -24 4 -27 -47 -41 -29 -8 -93 -22 -143 -31 -111 -19 -209 -65 -236 -108 -56 -92 19 -167 165 -167 151 0 235 38 223 99 -6 26 -3 29 30 34 21 4 39 5 41 3 2 -2 -4 -18 -12 -35 -22 -42 -20 -82 6 -121 36 -52 73 -74 124 -75 41 0 46 -3 62 -35 23 -49 89 -112 142 -137 73 -34 138 -53 181 -53 78 0 162 64 177 135 l8 40 84 1 c47 0 94 3 106 7 19 7 20 4 20 -42 -1 -59 22 -95 80 -128 79 -45 153 -41 277 14 58 26 127 97 127 129 0 8 8 14 18 14 41 0 113 33 141 66 35 39 55 103 46 146 -8 35 -57 93 -96 113 -26 14 -27 16 -14 42 25 50 45 146 45 216 0 54 -8 93 -40 185 -34 97 -42 137 -50 237 -12 165 -26 229 -65 308 l-33 67 46 22 c26 11 66 34 90 50 44 31 52 27 26 -11 -27 -38 -44 -121 -45 -216 0 -76 5 -106 32 -185 17 -52 38 -107 45 -122 28 -53 64 -24 64 51 0 47 50 199 78 238 38 52 107 110 175 147 223 119 234 161 119 458 -40 103 -72 191 -72 195 -1 15 -37 51 -67 66 -22 12 -32 26 -37 51 -12 64 -96 216 -146 266 -84 83 -214 159 -303 175 -23 5 -46 18 -60 35 -23 29 -159 118 -224 146 -51 22 -187 30 -358 23z m310 -47 c57 -16 222 -117 252 -152 14 -17 33 -30 43 -30 30 0 152 -54 210 -92 60 -40 120 -100 162 -163 31 -46 88 -179 88 -206 0 -12 13 -24 34 -33 42 -17 59 -43 81 -121 10 -33 24 -75 33 -94 109 -251 114 -302 39 -366 -23 -20 -78 -56 -122 -80 -106 -57 -164 -110 -202 -182 -33 -62 -61 -149 -65 -201 -1 -18 -5 -32 -9 -32 -3 0 -21 44 -39 98 -29 87 -32 105 -27 174 8 101 38 187 95 271 110 160 132 211 139 327 5 75 3 88 -15 110 -27 33 -36 21 -25 -32 26 -119 -28 -261 -136 -360 -52 -48 -98 -76 -219 -135 -141 -69 -312 -131 -312 -113 0 4 12 25 26 46 41 59 51 90 68 206 12 85 22 118 46 157 19 30 35 74 41 111 10 66 88 237 120 266 11 9 19 23 19 30 0 8 -35 -9 -83 -40 -107 -71 -291 -154 -362 -166 -31 -5 -81 -21 -112 -35 -30 -14 -62 -25 -69 -25 -31 0 -157 -101 -182 -146 -28 -50 -17 5 30 146 77 235 68 221 220 370 116 114 142 146 169 203 47 102 96 122 153 61 22 -25 46 -26 46 -2 0 5 -14 23 -31 39 -24 23 -41 29 -74 29 -57 0 -89 -27 -126 -106 -39 -82 -94 -142 -225 -245 -59 -46 -146 -116 -193 -155 -112 -91 -225 -169 -218 -149 4 8 24 41 45 73 104 154 117 236 86 512 -12 103 36 195 113 221 78 25 414 34 488 11z m211 -735 c-19 -35 -40 -92 -46 -127 -6 -35 -25 -89 -40 -119 -30 -57 -41 -102 -59 -223 -12 -84 -35 -132 -86 -184 -77 -77 -184 -80 -244 -6 -17 20 -31 42 -31 49 0 25 -74 95 -130 123 -53 27 -57 31 -68 80 -11 45 -10 55 8 89 27 53 99 114 168 142 31 12 82 34 112 49 30 15 77 31 104 35 28 4 96 30 157 61 59 30 111 54 115 54 5 0 20 9 34 20 41 32 43 23 6 -43z m-747 -372 c0 -39 6 -66 20 -89 12 -18 21 -51 21 -72 1 -88 98 -184 187 -184 24 0 58 -7 74 -16 40 -20 147 -14 244 13 39 11 93 25 120 32 28 7 74 23 104 36 29 14 57 23 61 20 13 -8 52 -97 67 -155 20 -76 28 -253 14 -320 -6 -30 -25 -138 -43 -240 l-31 -185 17 -100 c10 -55 20 -111 22 -125 11 -57 16 -171 10 -205 -15 -79 -125 -159 -237 -172 -91 -11 -189 47 -189 111 0 18 21 90 46 161 59 168 68 267 35 395 -16 59 -21 107 -20 162 2 50 -1 82 -9 90 -9 9 -13 7 -19 -8 -10 -26 -10 -183 0 -216 9 -26 7 -27 -48 -38 -44 -9 -76 -9 -141 0 -46 7 -86 16 -89 20 -3 4 2 20 9 36 9 17 16 69 18 124 2 79 1 95 -12 95 -10 0 -16 -12 -18 -40 -5 -83 -23 -180 -36 -195 -7 -8 -24 -42 -36 -75 -19 -48 -23 -80 -24 -165 0 -93 3 -115 32 -197 18 -50 32 -103 32 -116 0 -35 -40 -89 -80 -110 -80 -42 -233 4 -317 96 -85 92 -91 158 -28 317 62 157 61 292 -6 507 -36 118 -49 263 -30 351 35 161 44 194 66 240 13 28 40 75 59 105 37 58 133 167 146 167 5 0 9 -25 9 -55z m168 -198 c33 -35 84 -127 70 -126 -73 4 -167 95 -167 161 l0 28 38 -20 c22 -11 48 -30 59 -43z m-484 -507 c3 -39 15 -96 26 -128 49 -141 61 -242 41 -354 -13 -71 -49 -178 -60 -178 -17 0 -90 92 -113 141 -66 141 -54 341 27 479 15 25 34 60 43 78 9 17 20 32 23 32 4 0 10 -32 13 -70z m1324 -303 c4 -58 1 -95 -12 -144 -19 -69 -65 -165 -82 -170 -11 -4 -33 100 -33 158 0 33 48 349 57 379 10 30 64 -144 70 -223z m-741 -128 c44 -11 191 -7 233 6 l24 8 -5 -119 c-4 -101 -10 -133 -36 -208 -18 -50 -37 -95 -42 -100 -7 -7 -57 -11 -122 -11 l-112 0 -28 85 c-38 120 -37 227 4 333 7 19 16 26 26 22 8 -3 34 -10 58 -16z m-741 -78 c3 -16 13 -35 21 -42 26 -21 15 -35 -30 -38 -24 -1 -58 -6 -76 -11 -19 -5 -41 -5 -56 1 -37 14 -120 11 -133 -4 -17 -21 -3 -27 65 -27 45 0 68 -5 85 -18 50 -41 -15 -72 -148 -72 -89 0 -139 13 -153 40 -39 72 52 132 247 164 49 8 105 21 124 29 41 17 46 15 54 -22z m1486 -113 c58 -43 74 -108 43 -175 -19 -39 -45 -58 -90 -66 l-32 -6 -4 97 c-4 91 -3 99 21 134 14 21 27 37 29 38 2 0 17 -10 33 -22z m-1379 -40 c38 -40 41 -47 40 -98 l0 -55 -39 2 c-28 2 -45 11 -67 34 -24 28 -28 38 -23 76 4 36 29 83 44 83 2 0 22 -19 45 -42z"/>
<path d="M1461 2527 c-47 -17 -74 -56 -74 -108 0 -59 44 -99 107 -99 77 0 131 76 101 145 -25 60 -75 83 -134 62z m59 -48 c0 -6 -4 -18 -10 -28 -5 -10 -10 -35 -12 -55 -2 -40 -12 -44 -46 -20 -29 20 -29 67 0 94 23 21 68 28 68 9z m52 -31 c9 -23 -12 -78 -29 -78 -12 0 -14 7 -9 31 3 17 6 38 6 45 0 17 26 18 32 2z"/>
<path d="M1956 2120 c-66 -20 -97 -80 -76 -146 22 -67 119 -83 171 -28 35 37 34 114 -1 148 -31 30 -56 37 -94 26z m48 -49 c3 -4 -4 -25 -14 -47 -11 -21 -20 -44 -20 -51 0 -16 -22 -17 -38 -1 -17 17 -15 68 5 90 17 19 58 25 67 9z m46 -62 c0 -26 -18 -59 -31 -59 -11 0 -4 63 8 83 8 13 23 -3 23 -24z"/>
<path d="M1345 1978 c-44 -25 -46 -55 -5 -69 37 -13 40 -39 5 -39 -23 0 -25 -4 -25 -45 0 -37 3 -45 19 -45 10 0 33 -3 50 -6 31 -6 32 -6 25 20 -5 22 -3 26 15 26 11 0 25 -9 31 -20 22 -41 60 -8 60 52 0 36 -6 47 -45 85 -25 24 -54 43 -64 43 -11 0 -25 2 -33 5 -7 2 -22 -1 -33 -7z m92 -65 c17 -16 34 -38 38 -50 6 -21 5 -22 -26 -11 -25 9 -34 8 -37 0 -9 -27 -20 -10 -15 22 3 19 1 36 -6 40 -6 4 -11 11 -11 17 0 17 26 9 57 -18z"/>
</g>
</g></g><g><g transform="translate(46.13393329200335, 105.36481446004473) scale(0.13658031274098903 0.36658405559137464) "><metadata>
Created by potrace 1.10, written by Peter Selinger 2001-2011
</metadata>
<g transform="translate(0.000000,384.000000) scale(0.100000,-0.100000)" fill="#000000" stroke="none">
<path d="M504 3241 c-67 -41 -71 -188 -9 -361 42 -118 41 -108 28 -285 -27 -361 13 -478 191 -563 l69 -33 -6 -62 c-23 -225 -29 -497 -18 -782 12 -317 25 -453 47 -496 16 -33 77 -63 126 -63 46 -1 85 33 94 81 3 18 11 33 16 33 5 0 3 7 -5 15 -16 15 -13 82 3 99 10 10 10 7 10 -115 1 -99 9 -112 77 -123 49 -7 118 16 133 44 9 17 22 18 142 13 104 -4 140 -9 164 -24 34 -20 95 -17 115 7 6 8 23 14 38 14 77 0 234 48 295 89 42 29 47 31 68 17 85 -55 260 -68 355 -27 172 76 288 387 202 540 -42 75 -127 90 -182 33 -22 -22 -31 -49 -45 -123 -33 -169 -69 -208 -180 -195 -86 10 -91 15 -80 83 5 32 8 112 5 178 -3 96 -10 135 -30 195 -33 92 -118 220 -218 325 -121 128 -209 242 -209 271 0 5 22 22 50 37 62 35 92 74 119 154 18 54 21 87 21 233 0 94 -5 201 -11 238 -11 65 -10 70 31 192 39 117 42 131 38 216 -6 142 -40 176 -153 154 -82 -16 -204 -64 -255 -101 l-42 -30 -126 22 c-140 24 -227 22 -365 -6 l-78 -17 -112 55 c-95 47 -220 87 -269 87 -7 0 -27 -9 -44 -19z m108 -32 c69 -15 192 -65 246 -101 51 -33 53 -34 172 -8 112 24 230 26 325 5 134 -30 142 -30 183 -2 86 60 278 125 329 113 28 -8 43 -53 43 -133 0 -48 -10 -93 -41 -185 l-41 -121 12 -111 c15 -133 8 -394 -11 -450 -16 -46 -72 -106 -122 -129 -47 -23 -61 -42 -54 -77 9 -44 106 -170 231 -300 132 -138 176 -213 207 -352 47 -211 -8 -501 -110 -575 -16 -13 -33 -23 -37 -23 -4 0 -15 -6 -23 -14 -14 -12 -82 -32 -179 -51 -32 -7 -33 -6 -23 13 33 61 -7 402 -57 497 -25 47 -30 50 -70 53 -36 3 -47 -1 -71 -26 -56 -55 -65 -215 -25 -434 14 -74 21 -93 48 -119 22 -22 26 -28 11 -23 -11 4 -25 13 -32 20 -7 7 -61 15 -128 19 l-116 7 5 72 c3 39 8 109 11 156 3 47 8 112 11 146 4 45 2 64 -9 72 -30 25 -39 -13 -53 -206 -17 -242 -22 -270 -45 -293 -14 -14 -27 -17 -51 -12 -18 3 -37 9 -41 13 -17 15 -26 90 -37 295 -7 116 -16 214 -21 219 -23 25 -31 -21 -39 -216 -7 -168 -12 -211 -28 -249 -24 -56 -41 -63 -92 -43 -50 20 -56 39 -70 229 -25 335 -27 719 -5 1048 6 88 5 98 -12 103 -65 22 -133 60 -166 92 -61 59 -78 132 -78 330 1 89 6 193 12 232 10 69 10 71 -36 207 -42 124 -47 145 -42 205 4 69 26 118 52 118 8 0 38 -5 67 -11z m1979 -1971 c17 -29 20 -45 16 -123 -8 -171 -97 -317 -215 -351 -71 -21 -156 -19 -222 6 -81 30 -83 33 -57 113 17 52 25 66 37 61 38 -17 110 -26 153 -20 88 13 134 74 156 207 7 35 14 74 16 86 14 61 83 73 116 21z m-978 -45 c38 -43 81 -386 58 -470 -14 -50 -45 -77 -72 -62 -17 9 -29 40 -58 162 -15 62 -26 273 -17 320 12 62 55 87 89 50z m517 -220 c0 -19 -13 -9 -16 12 -1 8 2 13 7 9 5 -3 9 -12 9 -21z m-63 -150 c-4 -3 3 -18 15 -31 l23 -25 -24 13 c-17 8 -26 9 -34 1 -6 -6 -17 -11 -24 -11 -9 0 -7 9 9 30 12 17 26 30 32 30 5 0 6 -3 3 -7z m-79 -77 c-7 -8 -15 -12 -17 -11 -5 6 10 25 20 25 5 0 4 -6 -3 -14z m-717 -60 c17 10 9 -2 -16 -26 l-25 -24 12 34 c6 19 13 29 16 22 2 -7 8 -10 13 -6z m433 -5 c3 -5 0 -11 -7 -14 -8 -3 -14 1 -14 9 0 16 13 19 21 5z m-599 -59 c-3 -3 -11 0 -18 7 -9 10 -8 11 6 5 10 -3 15 -9 12 -12z"/>
<path d="M1750 3100 c-31 -9 -100 -51 -119 -73 -11 -14 -5 -25 50 -82 34 -36 65 -65 69 -65 17 0 61 80 69 125 14 77 -10 111 -69 95z m33 -73 c-1 -20 -9 -50 -17 -66 l-15 -29 -42 40 c-23 22 -38 43 -33 48 18 16 89 50 99 46 5 -2 9 -20 8 -39z"/>
<path d="M606 3064 c-9 -8 -16 -20 -16 -27 0 -30 35 -134 51 -151 17 -18 19 -17 74 35 68 64 68 82 1 127 -53 35 -86 40 -110 16z m86 -47 l37 -23 -35 -33 c-19 -19 -36 -32 -38 -30 -5 7 -26 86 -26 98 0 17 21 13 62 -12z"/>
<path d="M897 2592 c-45 -49 4 -114 58 -78 30 20 32 49 5 76 -25 25 -42 25 -63 2z m43 -52 c-19 -12 -35 3 -26 26 6 17 8 17 24 0 15 -15 15 -18 2 -26z"/>
<path d="M1438 2589 c-22 -12 -24 -62 -4 -78 20 -17 67 -10 80 11 16 27 -4 72 -34 75 -14 2 -33 -2 -42 -8z m49 -43 c-8 -19 -37 -21 -37 -3 0 7 5 18 12 25 15 15 33 -1 25 -22z"/>
<path d="M1150 2460 c0 -5 9 -14 20 -20 15 -8 20 -21 20 -48 0 -31 -6 -41 -35 -60 -26 -19 -41 -22 -66 -17 -24 5 -30 4 -27 -6 10 -30 79 -23 115 11 l22 20 26 -24 c29 -27 62 -36 93 -25 35 13 26 31 -11 24 -75 -14 -136 94 -70 124 19 9 23 15 15 23 -8 8 -15 8 -27 -2 -12 -10 -21 -10 -41 -1 -30 13 -34 14 -34 1z"/>
<path d="M710 2400 c0 -6 30 -10 70 -10 40 0 70 4 70 10 0 6 -30 10 -70 10 -40 0 -70 -4 -70 -10z"/>
<path d="M1583 2403 c-34 -4 -46 -23 -15 -23 45 0 122 14 122 21 0 9 -45 10 -107 2z"/>
<path d="M777 2305 c-27 -7 -51 -16 -55 -19 -13 -13 9 -17 40 -8 18 6 45 13 61 16 15 4 27 11 27 16 0 12 -13 12 -73 -5z"/>
<path d="M1545 2300 c-6 -10 103 -55 112 -46 10 9 0 15 -56 36 -28 10 -53 15 -56 10z"/>
<path d="M2904 882 c4 -3 14 -7 22 -8 9 -1 13 0 10 4 -4 3 -14 7 -22 8 -9 1 -13 0 -10 -4z"/>
</g>
</g></g><g><g transform="translate(163.05573832942173, 120.584187167231) scale(0.10001137177459896 0.3260150356218219) "><metadata>
Created by potrace 1.10, written by Peter Selinger 2001-2011
</metadata>
<g transform="translate(0.000000,384.000000) scale(0.100000,-0.100000)" fill="#000000" stroke="none">
<path d="M504 3241 c-67 -41 -71 -188 -9 -361 42 -118 41 -108 28 -285 -27 -361 13 -478 191 -563 l69 -33 -6 -62 c-23 -225 -29 -497 -18 -782 12 -317 25 -453 47 -496 16 -33 77 -63 126 -63 46 -1 85 33 94 81 3 18 11 33 16 33 5 0 3 7 -5 15 -16 15 -13 82 3 99 10 10 10 7 10 -115 1 -99 9 -112 77 -123 49 -7 118 16 133 44 9 17 22 18 142 13 104 -4 140 -9 164 -24 34 -20 95 -17 115 7 6 8 23 14 38 14 77 0 234 48 295 89 42 29 47 31 68 17 85 -55 260 -68 355 -27 172 76 288 387 202 540 -42 75 -127 90 -182 33 -22 -22 -31 -49 -45 -123 -33 -169 -69 -208 -180 -195 -86 10 -91 15 -80 83 5 32 8 112 5 178 -3 96 -10 135 -30 195 -33 92 -118 220 -218 325 -121 128 -209 242 -209 271 0 5 22 22 50 37 62 35 92 74 119 154 18 54 21 87 21 233 0 94 -5 201 -11 238 -11 65 -10 70 31 192 39 117 42 131 38 216 -6 142 -40 176 -153 154 -82 -16 -204 -64 -255 -101 l-42 -30 -126 22 c-140 24 -227 22 -365 -6 l-78 -17 -112 55 c-95 47 -220 87 -269 87 -7 0 -27 -9 -44 -19z m108 -32 c69 -15 192 -65 246 -101 51 -33 53 -34 172 -8 112 24 230 26 325 5 134 -30 142 -30 183 -2 86 60 278 125 329 113 28 -8 43 -53 43 -133 0 -48 -10 -93 -41 -185 l-41 -121 12 -111 c15 -133 8 -394 -11 -450 -16 -46 -72 -106 -122 -129 -47 -23 -61 -42 -54 -77 9 -44 106 -170 231 -300 132 -138 176 -213 207 -352 47 -211 -8 -501 -110 -575 -16 -13 -33 -23 -37 -23 -4 0 -15 -6 -23 -14 -14 -12 -82 -32 -179 -51 -32 -7 -33 -6 -23 13 33 61 -7 402 -57 497 -25 47 -30 50 -70 53 -36 3 -47 -1 -71 -26 -56 -55 -65 -215 -25 -434 14 -74 21 -93 48 -119 22 -22 26 -28 11 -23 -11 4 -25 13 -32 20 -7 7 -61 15 -128 19 l-116 7 5 72 c3 39 8 109 11 156 3 47 8 112 11 146 4 45 2 64 -9 72 -30 25 -39 -13 -53 -206 -17 -242 -22 -270 -45 -293 -14 -14 -27 -17 -51 -12 -18 3 -37 9 -41 13 -17 15 -26 90 -37 295 -7 116 -16 214 -21 219 -23 25 -31 -21 -39 -216 -7 -168 -12 -211 -28 -249 -24 -56 -41 -63 -92 -43 -50 20 -56 39 -70 229 -25 335 -27 719 -5 1048 6 88 5 98 -12 103 -65 22 -133 60 -166 92 -61 59 -78 132 -78 330 1 89 6 193 12 232 10 69 10 71 -36 207 -42 124 -47 145 -42 205 4 69 26 118 52 118 8 0 38 -5 67 -11z m1979 -1971 c17 -29 20 -45 16 -123 -8 -171 -97 -317 -215 -351 -71 -21 -156 -19 -222 6 -81 30 -83 33 -57 113 17 52 25 66 37 61 38 -17 110 -26 153 -20 88 13 134 74 156 207 7 35 14 74 16 86 14 61 83 73 116 21z m-978 -45 c38 -43 81 -386 58 -470 -14 -50 -45 -77 -72 -62 -17 9 -29 40 -58 162 -15 62 -26 273 -17 320 12 62 55 87 89 50z m517 -220 c0 -19 -13 -9 -16 12 -1 8 2 13 7 9 5 -3 9 -12 9 -21z m-63 -150 c-4 -3 3 -18 15 -31 l23 -25 -24 13 c-17 8 -26 9 -34 1 -6 -6 -17 -11 -24 -11 -9 0 -7 9 9 30 12 17 26 30 32 30 5 0 6 -3 3 -7z m-79 -77 c-7 -8 -15 -12 -17 -11 -5 6 10 25 20 25 5 0 4 -6 -3 -14z m-717 -60 c17 10 9 -2 -16 -26 l-25 -24 12 34 c6 19 13 29 16 22 2 -7 8 -10 13 -6z m433 -5 c3 -5 0 -11 -7 -14 -8 -3 -14 1 -14 9 0 16 13 19 21 5z m-599 -59 c-3 -3 -11 0 -18 7 -9 10 -8 11 6 5 10 -3 15 -9 12 -12z"/>
<path d="M1750 3100 c-31 -9 -100 -51 -119 -73 -11 -14 -5 -25 50 -82 34 -36 65 -65 69 -65 17 0 61 80 69 125 14 77 -10 111 -69 95z m33 -73 c-1 -20 -9 -50 -17 -66 l-15 -29 -42 40 c-23 22 -38 43 -33 48 18 16 89 50 99 46 5 -2 9 -20 8 -39z"/>
<path d="M606 3064 c-9 -8 -16 -20 -16 -27 0 -30 35 -134 51 -151 17 -18 19 -17 74 35 68 64 68 82 1 127 -53 35 -86 40 -110 16z m86 -47 l37 -23 -35 -33 c-19 -19 -36 -32 -38 -30 -5 7 -26 86 -26 98 0 17 21 13 62 -12z"/>
<path d="M897 2592 c-45 -49 4 -114 58 -78 30 20 32 49 5 76 -25 25 -42 25 -63 2z m43 -52 c-19 -12 -35 3 -26 26 6 17 8 17 24 0 15 -15 15 -18 2 -26z"/>
<path d="M1438 2589 c-22 -12 -24 -62 -4 -78 20 -17 67 -10 80 11 16 27 -4 72 -34 75 -14 2 -33 -2 -42 -8z m49 -43 c-8 -19 -37 -21 -37 -3 0 7 5 18 12 25 15 15 33 -1 25 -22z"/>
<path d="M1150 2460 c0 -5 9 -14 20 -20 15 -8 20 -21 20 -48 0 -31 -6 -41 -35 -60 -26 -19 -41 -22 -66 -17 -24 5 -30 4 -27 -6 10 -30 79 -23 115 11 l22 20 26 -24 c29 -27 62 -36 93 -25 35 13 26 31 -11 24 -75 -14 -136 94 -70 124 19 9 23 15 15 23 -8 8 -15 8 -27 -2 -12 -10 -21 -10 -41 -1 -30 13 -34 14 -34 1z"/>
<path d="M710 2400 c0 -6 30 -10 70 -10 40 0 70 4 70 10 0 6 -30 10 -70 10 -40 0 -70 -4 -70 -10z"/>
<path d="M1583 2403 c-34 -4 -46 -23 -15 -23 45 0 122 14 122 21 0 9 -45 10 -107 2z"/>
<path d="M777 2305 c-27 -7 -51 -16 -55 -19 -13 -13 9 -17 40 -8 18 6 45 13 61 16 15 4 27 11 27 16 0 12 -13 12 -73 -5z"/>
<path d="M1545 2300 c-6 -10 103 -55 112 -46 10 9 0 15 -56 36 -28 10 -53 15 -56 10z"/>
<path d="M2904 882 c4 -3 14 -7 22 -8 9 -1 13 0 10 4 -4 3 -14 7 -22 8 -9 1 -13 0 -10 -4z"/>
</g>
</g></g></svg>
